<svg class="contact-hand" xmlns="http://www.w3.org/2000/svg" viewBox="0 0 175.8 136.2"><path d="M169.9,59.3c-3.7-7.1-12.1-9.9-16.2-6.9c-4.1,3-4.2,8.7-1.9,13.4c6.7,12.8,5.1,27.6-4.4,38.6 c-3.3,4-4.5,9.7-1.2,13.5c3.3,3.8,12.1,3,17.3-3.2C177.2,98.8,179.6,77.7,169.9,59.3z"></path><path d="M131.9,46L131.9,46l-10.5-35.4c-2.3-7.8-10.5-12.3-18.3-9.9s-12.3,10.5-9.9,18.3l6.2,20.8h8 c1.9,0,3.5,1.6,3.5,3.5s-1.6,3.5-3.5,3.5H42.4c-5.3,1.9-9.2,7-9.2,12.9c0,4.1,1.8,7.7,4.6,10.2h12.4c1.9,0,3.5,1.6,3.5,3.5 s-1.6,3.5-3.5,3.5H37.8c-2.8,2.5-4.6,6.2-4.6,10.2c0,5.8,3.6,10.8,8.7,12.8H55c0.9,0,1.8,0.4,2.4,0.9h0.1v0.1c0.6,0.6,1,1.5,1,2.5 c0,1.9-1.6,3.5-3.5,3.5h-7.6L12,115.5c-8,1.9-13.3,8-11.7,13.6s9.3,8.5,17.4,6.6l39.9-9.6v0.4h41.4c21.5,0,39.1-16.6,40.7-37.6 C142.4,65.3,131.9,46,131.9,46z M121.7,106.9H88.7c-1.9,0-3.5-1.6-3.5-3.5s1.6-3.5,3.5-3.5h32.9c1.9,0,3.5,1.6,3.5,3.5 S123.6,106.9,121.7,106.9z M121.7,90.1H88.7c-1.9,0-3.5-1.6-3.5-3.5c0-1.9,1.6-3.5,3.5-3.5h32.9c1.9,0,3.5,1.6,3.5,3.5 C125.2,88.5,123.6,90.1,121.7,90.1z M121.7,73.2H88.7c-1.9,0-3.5-1.6-3.5-3.5s1.6-3.5,3.5-3.5h32.9c1.9,0,3.5,1.6,3.5,3.5 S123.6,73.2,121.7,73.2z"></path></svg>